<mxfile host="app.diagrams.net" modified="2024-04-17T19:02:45.742Z" agent="Mozilla/5.0 (Windows NT 10.0; Win64; x64) AppleWebKit/537.36 (KHTML, like Gecko) Chrome/123.0.0.0 Safari/537.36 Edg/123.0.0.0" version="24.2.5" etag="W7y30Bot7OI9_xJNuerR" type="github">
  <diagram name="PÃ¡gina-1" id="s4DB_yevGB1RviR0NIhR">
    <mxGraphModel>
      <root>
        <mxCell id="0" />
        <mxCell id="1" parent="0" />
      </root>
    </mxGraphModel>
  </diagram>
</mxfile>
